HIERARCHY
ROOT Hips
{
 OFFSET 0.000000 0.000000 0.000000
 CHANNELS 6 Xposition Yposition Zposition Yrotation Xrotation Zrotation
 JOINT Chest
 {
  OFFSET 0.000000 9.585900 0.002600
  CHANNELS 3 Yrotation Xrotation Zrotation
  JOINT Chest2
  {
   OFFSET 0.000000 9.601200 -0.005300
   CHANNELS 3 Yrotation Xrotation Zrotation
   JOINT Chest3
   {
    OFFSET 0.000000 9.561800 0.000000
    CHANNELS 3 Yrotation Xrotation Zrotation
    JOINT Chest4
    {
     OFFSET 0.000000 9.552100 0.000000
     CHANNELS 3 Yrotation Xrotation Zrotation
     JOINT Neck
     {
      OFFSET 0.000000 14.453000 0.000000
      CHANNELS 3 Yrotation Xrotation Zrotation
      JOINT Head
      {
       OFFSET 0.000000 8.936500 -0.011300
       CHANNELS 3 Yrotation Xrotation Zrotation
       End Site
       {
        OFFSET 0.000000 17.073600 -0.006000
       }
      }
     }
     JOINT RightCollar
     {
      OFFSET -2.921100 9.558500 0.000000
      CHANNELS 3 Yrotation Xrotation Zrotation
      JOINT RightShoulder
      {
       OFFSET -13.519700 0.000000 0.000000
       CHANNELS 3 Yrotation Xrotation Zrotation
       JOINT RightElbow
       {
        OFFSET 0.000000 -29.696600 0.000000
        CHANNELS 3 Yrotation Xrotation Zrotation
        JOINT RightWrist
        {
         OFFSET 0.000000 -24.004700 0.000000
         CHANNELS 3 Yrotation Xrotation Zrotation
         End Site
         {
          OFFSET 0.000000 -17.728500 0.000000
         }
        }
       }
      }
     }
     JOINT LeftCollar
     {
      OFFSET 2.921100 9.558500 0.000000
      CHANNELS 3 Yrotation Xrotation Zrotation
      JOINT LeftShoulder
      {
       OFFSET 13.519700 0.000000 0.000000
       CHANNELS 3 Yrotation Xrotation Zrotation
       JOINT LeftElbow
       {
        OFFSET 0.000000 -29.696600 0.000000
        CHANNELS 3 Yrotation Xrotation Zrotation
        JOINT LeftWrist
        {
         OFFSET 0.000000 -24.004700 0.000000
         CHANNELS 3 Yrotation Xrotation Zrotation
         End Site
         {
          OFFSET 0.000000 -17.728500 0.000000
         }
        }
       }
      }
     }
    }
   }
  }
 }
 JOINT RightHip
 {
  OFFSET -7.771700 -0.012900 -0.001300
  CHANNELS 3 Yrotation Xrotation Zrotation
  JOINT RightKnee
  {
   OFFSET 0.000000 -40.869800 0.001200
   CHANNELS 3 Yrotation Xrotation Zrotation
   JOINT RightAnkle
   {
    OFFSET 0.000000 -39.717900 0.002100
    CHANNELS 3 Yrotation Xrotation Zrotation
    JOINT RightToe
    {
     OFFSET 0.000000 -4.965400 11.033500
     CHANNELS 3 Yrotation Xrotation Zrotation
     End Site
     {
      OFFSET 0.000000 -1.423100 5.872300
     }
    }
   }
  }
 }
 JOINT LeftHip
 {
  OFFSET 7.771700 -0.012900 -0.001300
  CHANNELS 3 Yrotation Xrotation Zrotation
  JOINT LeftKnee
  {
   OFFSET 0.000000 -40.869800 0.001200
   CHANNELS 3 Yrotation Xrotation Zrotation
   JOINT LeftAnkle
   {
    OFFSET 0.000000 -39.717900 0.002100
    CHANNELS 3 Yrotation Xrotation Zrotation
    JOINT LeftToe
    {
     OFFSET 0.000000 -4.965400 11.033500
     CHANNELS 3 Yrotation Xrotation Zrotation
     End Site
     {
      OFFSET 0.000000 -1.423100 5.872300
     }
    }
   }
  }
 }
}
MOTION
Frames: 6
Frame Time: 0.008333
0.000000 85.388000 0.000000 0.000000 -5.767877 0.000000 0.000000 11.653817 0.000000 0.000000 -5.885947 0.000000 0.000000 -0.000000 0.000000 0.000000 -0.000000 0.000000 0.000000 12.528835 0.000000 0.000000 0.711642 0.000000 0.000000 -0.000000 0.000000 0.000000 0.000000 -90.000000 0.000000 -2.309062 0.000000 0.000000 2.309062 0.000000 0.000000 -0.000000 0.000000 0.000000 -0.000000 90.000000 0.000000 -2.309062 0.000000 0.000000 2.309062 0.000000 0.000000 8.520406 0.000000 0.000000 1.905762 0.000000 -0.000000 -4.658285 0.000000 0.000000 -0.000000 0.000000 0.000000 8.520406 0.000000 0.000000 1.905762 0.000000 -0.000000 -4.658285 0.000000 0.000000 -0.000000 0.000000
-161.643467 55.734056 107.694056 -173.829083 -28.117626 -11.188471 -0.644914 16.072085 8.013260 -0.689523 9.326619 3.112157 -0.773641 11.695522 3.892017 -0.684284 9.345176 3.116215 2.029843 18.220439 -2.334984 2.695467 -6.453151 -2.943012 -0.029924 2.406691 -5.042995 -21.804384 -9.653337 -1.346913 -72.598958 -42.370190 107.268633 1.912742 -6.686287 14.935319 -11.792954 1.661237 -3.136818 8.937480 -6.938283 3.884456 102.080128 -51.119583 -123.092601 34.210737 -3.395046 -7.704995 -21.726043 -35.229596 11.267288 36.769985 85.451942 32.843346 -0.817686 -19.536754 -1.844973 -0.824729 2.295989 -0.380908 -16.751799 -49.558346 12.460835 175.000060 80.435112 170.482703 -1.303464 -16.600765 2.412454 -0.170912 -1.015974 -0.077393
-161.644078 55.736234 107.695873 -173.811929 -28.138611 -11.201251 -0.659210 16.080046 8.013311 -0.701962 9.299801 3.104040 -0.791316 11.679132 3.884757 -0.695452 9.339401 3.111734 2.148429 18.297060 -2.253423 2.795852 -6.380893 -2.883342 0.003048 2.446932 -5.035850 -21.728650 -9.502564 -1.267185 -72.328224 -42.537802 106.769235 1.932004 -6.668184 14.776493 -11.772959 1.699859 -3.165176 8.763720 -6.881142 3.771909 102.228295 -51.393903 -122.969078 33.963085 -3.303569 -7.467477 -21.732327 -35.200029 11.256809 36.722209 85.442005 32.796495 -0.808348 -19.539657 -1.843966 -0.832379 2.302404 -0.384276 -16.753829 -49.534947 12.452155 174.971929 80.439006 170.458302 -1.308313 -16.598901 2.416060 -0.169210 -1.016180 -0.077951
-161.645400 55.738769 107.697475 -173.793381 -28.164507 -11.214290 -0.679584 16.071556 8.006564 -0.710160 9.289169 3.097908 -0.802875 11.671261 3.878996 -0.689145 9.368174 3.116092 2.235225 18.322220 -2.188071 2.888748 -6.312529 -2.829539 0.013194 2.443986 -5.030978 -21.647962 -9.365570 -1.170061 -72.050898 -42.714312 106.255301 1.940401 -6.642088 14.628074 -11.775705 1.581023 -3.238790 8.608984 -6.735385 3.721308 102.490262 -51.797354 -122.895021 33.617329 -3.177705 -7.198445 -21.736541 -35.165870 11.242649 36.689066 85.431503 32.765260 -0.802541 -19.542042 -1.843667 -0.838302 2.307782 -0.386535 -16.751865 -49.505700 12.435114 174.897185 80.441964 170.389109 -1.310909 -16.599814 2.423578 -0.170832 -1.014125 -0.084929
-161.646669 55.741411 107.699055 -173.779571 -28.192225 -11.229433 -0.701016 16.014306 7.988857 -0.714207 9.324444 3.102593 -0.815161 11.660492 3.872768 -0.684649 9.401802 3.123601 2.310054 18.328586 -2.137045 2.970897 -6.257280 -2.783516 0.020499 2.399527 -5.029115 -21.575031 -9.221649 -1.095104 -71.743354 -42.859019 105.717457 1.950560 -6.611029 14.498929 -11.755748 1.490183 -3.282672 8.461783 -6.632447 3.629351 102.913129 -52.375407 -122.900396 33.153734 -3.023910 -6.876984 -21.738856 -35.127770 11.231839 36.665645 85.417495 32.742146 -0.792719 -19.547994 -1.838928 -0.841735 2.313533 -0.391096 -16.748032 -49.474778 12.424018 174.814742 80.443429 170.314163 -1.320374 -16.599870 2.427643 -0.169260 -1.014699 -0.086833
-161.648639 55.743517 107.701027 -173.760450 -28.214520 -11.246427 -0.717758 15.994781 7.982795 -0.724136 9.313041 3.097091 -0.827857 11.646298 3.865554 -0.691093 9.400374 3.118817 2.387353 18.353414 -2.083323 3.044503 -6.217465 -2.744561 0.034276 2.302615 -5.021519 -21.493942 -8.996727 -1.044360 -71.432188 -42.979382 105.183058 1.975488 -6.574041 14.390198 -11.712883 1.455885 -3.311291 8.332021 -6.558252 3.513647 103.533310 -53.162932 -123.015868 32.571502 -2.847978 -6.491463 -21.748197 -35.096430 11.224052 36.594374 85.409029 32.667740 -0.772001 -19.547273 -1.838802 -0.855432 2.314504 -0.392431 -16.757113 -49.447943 12.415380 174.778817 80.447320 170.283654 -1.320514 -16.603677 2.428509 -0.166758 -1.011177 -0.087807
